<?xml version="1.0" encoding="utf-8"?>
<COLLADA xmlns="http://www.collada.org/2005/11/COLLADASchema" version="1.4.1" xmlns:xsi="http://www.w3.org/2001/XMLSchema-instance">
  <asset>
    <contributor>
      <author>Blender User</author>
      <authoring_tool>Blender 3.5.0 commit date:2023-03-29, commit time:02:56, hash:1be25cfff18b</authoring_tool>
    </contributor>
    <created>2025-08-30T08:42:40</created>
    <modified>2025-08-30T08:42:40</modified>
    <unit name="meter" meter="1"/>
    <up_axis>Z_UP</up_axis>
  </asset>
  <library_images/>
  <library_geometries>
    <geometry id="Cylinder_001-mesh" name="Cylinder.001">
      <mesh>
        <source id="Cylinder_001-mesh-positions">
          <float_array id="Cylinder_001-mesh-positions-array" count="192">-0.07715898 1.579009 5.16678 0.09472799 1.579009 5.16678 -0.07715898 1.383919 5.147566 0.09472799 1.383919 5.147566 -0.07715898 1.196325 5.09066 0.09472799 1.196325 5.09066 -0.07715898 1.023439 4.99825 0.09472799 1.023439 4.99825 -0.07715898 0.871902 4.873888 0.09472799 0.871902 4.873888 -0.07715898 0.747539 4.722351 0.09472799 0.747539 4.722351 -0.07715898 0.655129 4.549464 0.09472799 0.655129 4.549464 -0.07715898 0.598224 4.361871 0.09472799 0.598224 4.361871 -0.07715898 0.579009 4.16678 0.09472799 0.579009 4.16678 -0.07715898 0.598223 3.97169 0.09472799 0.598223 3.97169 -0.07715898 0.655129 3.784097 0.09472799 0.655129 3.784097 -0.07715898 0.747539 3.61121 0.09472799 0.747539 3.61121 -0.07715898 0.871902 3.459674 0.09472799 0.871902 3.459674 -0.07715898 1.023438 3.335311 0.09472799 1.023438 3.335311 -0.07715898 1.196325 3.242901 0.09472799 1.196325 3.242901 -0.07715898 1.383918 3.185995 0.09472799 1.383918 3.185995 -0.07715898 1.579009 3.16678 0.09472799 1.579009 3.16678 -0.07715898 1.774099 3.185995 0.09472799 1.774099 3.185995 -0.07715898 1.961692 3.242901 0.09472799 1.961692 3.242901 -0.07715898 2.134579 3.335311 0.09472799 2.134579 3.335311 -0.07715898 2.286115 3.459674 0.09472799 2.286115 3.459674 -0.07715898 2.410478 3.61121 0.09472799 2.410478 3.61121 -0.07715898 2.502888 3.784097 0.09472799 2.502888 3.784097 -0.07715898 2.559794 3.97169 0.09472799 2.559794 3.97169 -0.07715898 2.579009 4.16678 0.09472799 2.579009 4.16678 -0.07715898 2.559794 4.361871 0.09472799 2.559794 4.361871 -0.07715898 2.502888 4.549464 0.09472799 2.502888 4.549464 -0.07715898 2.410478 4.722351 0.09472799 2.410478 4.722351 -0.07715898 2.286116 4.873887 0.09472799 2.286116 4.873887 -0.07715898 2.134579 4.99825 0.09472799 2.134579 4.99825 -0.07715898 1.961692 5.09066 0.09472799 1.961692 5.09066 -0.07715898 1.774099 5.147566 0.09472799 1.774099 5.147566</float_array>
          <technique_common>
            <accessor source="#Cylinder_001-mesh-positions-array" count="64" stride="3">
              <param name="X" type="float"/>
              <param name="Y" type="float"/>
              <param name="Z" type="float"/>
            </accessor>
          </technique_common>
        </source>
        <source id="Cylinder_001-mesh-normals">
          <float_array id="Cylinder_001-mesh-normals-array" count="252">0 -0.09801435 0.995185 0 -0.2902836 0.9569407 0 -0.4713992 0.88192 0 -0.6343894 0.7730137 0 -0.7730111 0.6343926 0 -0.8819214 0.4713965 0 -0.9569417 0.2902806 0 -0.9951847 0.09801799 0 -0.9951851 -0.09801399 0 -0.9569401 -0.2902857 0 -0.8819211 -0.4713972 0 -0.7730091 -0.634395 0 -0.6343948 -0.7730092 0 -0.471396 -0.8819217 0 -0.2902857 -0.9569401 0 -0.09801876 -0.9951846 0 0.09801936 -0.9951846 0 0.290286 -0.9569401 0 0.471396 -0.8819217 0 0.6343953 -0.7730088 0 0.7730078 -0.6343965 0 0.8819209 -0.4713975 0 0.9569398 -0.2902866 0 0.9951845 -0.09802055 0 0.9951847 0.0980184 0 0.9569405 0.2902842 0 0.8819224 0.4713947 0 0.7730108 0.6343929 0 0.6343927 0.773011 0 0.4713971 0.8819212 1 0 0 0 0.2902848 0.9569404 0 0.09801435 0.995185 -1 0 0 0 -0.09801435 0.995185 0 -0.2902831 0.9569408 0 -0.4713996 0.8819198 0 -0.6343893 0.7730137 0 -0.7730106 0.6343932 0 -0.8819211 0.4713972 0 -0.9569415 0.290281 0 -0.9951846 0.0980184 0 -0.9951851 -0.0980131 0 -0.9569398 -0.2902866 0 -0.8819214 -0.4713965 0 -0.7730095 -0.6343944 0 -0.6343953 -0.7730088 0 -0.2902859 -0.9569401 0 -0.09801864 -0.9951846 0 0.09801918 -0.9951846 0 0.2902859 -0.9569401 0 0.6343953 -0.7730088 0 0.7730095 -0.6343944 0 0.8819224 -0.4713947 0 0.9569404 -0.2902849 0 0.9951847 -0.09801876 0 0.9951844 0.09802019 0 0.9569401 0.2902858 0 0.8819209 0.4713975 0 0.6343926 0.773011 1 0 0 1 -3.42134e-7 0 1 -2.48442e-7 0 1 -2.4845e-7 0 1 1.24221e-7 0 1 2.4845e-7 0 1 -2.48446e-7 0 1 0 0 1 0 0 1 1.27885e-7 0 1 0 0 1 0 0 1 0 0 0 0.2902848 0.9569404 0 0.09801453 0.995185 -1 0 0 -1 0 0 -1 0 0 -1 -2.48442e-7 0 -1 0 0 -1 2.48447e-7 0 -1 2.48442e-7 0 -1 0 0 -1 0 0</float_array>
          <technique_common>
            <accessor source="#Cylinder_001-mesh-normals-array" count="84" stride="3">
              <param name="X" type="float"/>
              <param name="Y" type="float"/>
              <param name="Z" type="float"/>
            </accessor>
          </technique_common>
        </source>
        <source id="Cylinder_001-mesh-map-0">
          <float_array id="Cylinder_001-mesh-map-0-array" count="744">0.96875 0.5 1 1 1 0.5 0.9375 0.5 0.96875 1 0.96875 0.5 0.90625 0.5 0.9375 1 0.9375 0.5 0.875 0.5 0.90625 1 0.90625 0.5 0.84375 0.5 0.875 1 0.875 0.5 0.8125 0.5 0.84375 1 0.84375 0.5 0.78125 0.5 0.8125 1 0.8125 0.5 0.75 0.5 0.78125 1 0.78125 0.5 0.71875 0.5 0.75 1 0.75 0.5 0.6875 0.5 0.71875 1 0.71875 0.5 0.65625 0.5 0.6875 1 0.6875 0.5 0.625 0.5 0.65625 1 0.65625 0.5 0.59375 0.5 0.625 1 0.625 0.5 0.5625 0.5 0.59375 1 0.59375 0.5 0.53125 0.5 0.5625 1 0.5625 0.5 0.5 0.5 0.53125 1 0.53125 0.5 0.46875 0.5 0.5 1 0.5 0.5 0.4375 0.5 0.46875 1 0.46875 0.5 0.40625 0.5 0.4375 1 0.4375 0.5 0.375 0.5 0.40625 1 0.40625 0.5 0.34375 0.5 0.375 1 0.375 0.5 0.3125 0.5 0.34375 1 0.34375 0.5 0.28125 0.5 0.3125 1 0.3125 0.5 0.25 0.5 0.28125 1 0.28125 0.5 0.21875 0.5 0.25 1 0.25 0.5 0.1875 0.5 0.21875 1 0.21875 0.5 0.15625 0.5 0.1875 1 0.1875 0.5 0.125 0.5 0.15625 1 0.15625 0.5 0.09375 0.5 0.125 1 0.125 0.5 0.0625 0.5 0.09375 1 0.09375 0.5 0.08029395 0.08029395 0.00999999 0.25 0.25 0.49 0.03125 0.5 0.0625 1 0.0625 0.5 0 0.5 0.03125 1 0.03125 0.5 0.883337 0.05044698 0.985388 0.203178 0.796822 0.485388 0.96875 0.5 0.96875 1 1 1 0.9375 0.5 0.9375 1 0.96875 1 0.90625 0.5 0.90625 1 0.9375 1 0.875 0.5 0.875 1 0.90625 1 0.84375 0.5 0.84375 1 0.875 1 0.8125 0.5 0.8125 1 0.84375 1 0.78125 0.5 0.78125 1 0.8125 1 0.75 0.5 0.75 1 0.78125 1 0.71875 0.5 0.71875 1 0.75 1 0.6875 0.5 0.6875 1 0.71875 1 0.65625 0.5 0.65625 1 0.6875 1 0.625 0.5 0.625 1 0.65625 1 0.59375 0.5 0.59375 1 0.625 1 0.5625 0.5 0.5625 1 0.59375 1 0.53125 0.5 0.53125 1 0.5625 1 0.5 0.5 0.5 1 0.53125 1 0.46875 0.5 0.46875 1 0.5 1 0.4375 0.5 0.4375 1 0.46875 1 0.40625 0.5 0.40625 1 0.4375 1 0.375 0.5 0.375 1 0.40625 1 0.34375 0.5 0.34375 1 0.375 1 0.3125 0.5 0.3125 1 0.34375 1 0.28125 0.5 0.28125 1 0.3125 1 0.25 0.5 0.25 1 0.28125 1 0.21875 0.5 0.21875 1 0.25 1 0.1875 0.5 0.1875 1 0.21875 1 0.15625 0.5 0.15625 1 0.1875 1 0.125 0.5 0.125 1 0.15625 1 0.09375 0.5 0.09375 1 0.125 1 0.0625 0.5 0.0625 1 0.09375 1 0.25 0.49 0.296822 0.485388 0.341844 0.471731 0.341844 0.471731 0.383337 0.449553 0.25 0.49 0.383337 0.449553 0.419706 0.419706 0.25 0.49 0.419706 0.419706 0.449553 0.383337 0.471731 0.341844 0.471731 0.341844 0.485388 0.296822 0.419706 0.419706 0.485388 0.296822 0.49 0.25 0.419706 0.419706 0.49 0.25 0.485388 0.203178 0.471731 0.158156 0.471731 0.158156 0.449553 0.116663 0.419706 0.08029395 0.419706 0.08029395 0.383337 0.05044698 0.341844 0.02826899 0.341844 0.02826899 0.296822 0.01461195 0.419706 0.08029395 0.296822 0.01461195 0.25 0.00999999 0.419706 0.08029395 0.25 0.00999999 0.203178 0.01461195 0.158156 0.02826899 0.158156 0.02826899 0.116663 0.05044698 0.08029395 0.08029395 0.08029395 0.08029395 0.05044698 0.116663 0.02826899 0.158156 0.02826899 0.158156 0.01461195 0.203178 0.08029395 0.08029395 0.01461195 0.203178 0.00999999 0.25 0.08029395 0.08029395 0.00999999 0.25 0.01461195 0.296822 0.02826899 0.341844 0.02826899 0.341844 0.05044698 0.383337 0.08029395 0.419706 0.08029395 0.419706 0.116663 0.449553 0.25 0.49 0.116663 0.449553 0.158156 0.471731 0.25 0.49 0.158156 0.471731 0.203178 0.485388 0.25 0.49 0.49 0.25 0.471731 0.158156 0.419706 0.08029395 0.25 0.00999999 0.158156 0.02826899 0.08029395 0.08029395 0.00999999 0.25 0.02826899 0.341844 0.25 0.49 0.02826899 0.341844 0.08029395 0.419706 0.25 0.49 0.25 0.49 0.419706 0.419706 0.49 0.25 0.49 0.25 0.419706 0.08029395 0.25 0.49 0.419706 0.08029395 0.25 0.00999999 0.25 0.49 0.25 0.00999999 0.08029395 0.08029395 0.25 0.49 0.03125 0.5 0.03125 1 0.0625 1 0 0.5 0 1 0.03125 1 0.796822 0.485388 0.75 0.49 0.616663 0.449553 0.75 0.49 0.703178 0.485388 0.616663 0.449553 0.703178 0.485388 0.658156 0.471731 0.616663 0.449553 0.616663 0.449553 0.580294 0.419706 0.550447 0.383337 0.550447 0.383337 0.528269 0.341844 0.616663 0.449553 0.528269 0.341844 0.514612 0.296822 0.616663 0.449553 0.514612 0.296822 0.51 0.25 0.514612 0.203178 0.514612 0.203178 0.528269 0.158156 0.514612 0.296822 0.528269 0.158156 0.550447 0.116663 0.514612 0.296822 0.550447 0.116663 0.580294 0.08029395 0.703178 0.01461195 0.580294 0.08029395 0.616663 0.05044698 0.703178 0.01461195 0.616663 0.05044698 0.658156 0.02826899 0.703178 0.01461195 0.703178 0.01461195 0.75 0.00999999 0.796822 0.01461195 0.796822 0.01461195 0.841844 0.02826899 0.703178 0.01461195 0.841844 0.02826899 0.883337 0.05044698 0.703178 0.01461195 0.883337 0.05044698 0.919706 0.08029395 0.985388 0.203178 0.919706 0.08029395 0.949553 0.116663 0.985388 0.203178 0.949553 0.116663 0.971731 0.158156 0.985388 0.203178 0.985388 0.203178 0.99 0.25 0.985388 0.296822 0.985388 0.296822 0.971731 0.341844 0.949553 0.383337 0.949553 0.383337 0.919706 0.419706 0.883337 0.449553 0.883337 0.449553 0.841844 0.471731 0.796822 0.485388 0.985388 0.203178 0.985388 0.296822 0.796822 0.485388 0.985388 0.296822 0.949553 0.383337 0.796822 0.485388 0.949553 0.383337 0.883337 0.449553 0.796822 0.485388 0.796822 0.485388 0.616663 0.449553 0.703178 0.01461195 0.616663 0.449553 0.514612 0.296822 0.703178 0.01461195 0.514612 0.296822 0.550447 0.116663 0.703178 0.01461195 0.703178 0.01461195 0.883337 0.05044698 0.796822 0.485388</float_array>
          <technique_common>
            <accessor source="#Cylinder_001-mesh-map-0-array" count="372" stride="2">
              <param name="S" type="float"/>
              <param name="T" type="float"/>
            </accessor>
          </technique_common>
        </source>
        <vertices id="Cylinder_001-mesh-vertices">
          <input semantic="POSITION" source="#Cylinder_001-mesh-positions"/>
        </vertices>
        <triangles count="124">
          <input semantic="VERTEX" source="#Cylinder_001-mesh-vertices" offset="0"/>
          <input semantic="NORMAL" source="#Cylinder_001-mesh-normals" offset="1"/>
          <input semantic="TEXCOORD" source="#Cylinder_001-mesh-map-0" offset="2" set="2"/>
          <p>2 0 0 1 0 1 0 0 2 4 1 3 3 1 4 2 1 5 6 2 6 5 2 7 4 2 8 8 3 9 7 3 10 6 3 11 10 4 12 9 4 13 8 4 14 12 5 15 11 5 16 10 5 17 14 6 18 13 6 19 12 6 20 16 7 21 15 7 22 14 7 23 18 8 24 17 8 25 16 8 26 20 9 27 19 9 28 18 9 29 22 10 30 21 10 31 20 10 32 24 11 33 23 11 34 22 11 35 26 12 36 25 12 37 24 12 38 28 13 39 27 13 40 26 13 41 30 14 42 29 14 43 28 14 44 32 15 45 31 15 46 30 15 47 34 16 48 33 16 49 32 16 50 36 17 51 35 17 52 34 17 53 38 18 54 37 18 55 36 18 56 40 19 57 39 19 58 38 19 59 42 20 60 41 20 61 40 20 62 44 21 63 43 21 64 42 21 65 46 22 66 45 22 67 44 22 68 48 23 69 47 23 70 46 23 71 50 24 72 49 24 73 48 24 74 52 25 75 51 25 76 50 25 77 54 26 78 53 26 79 52 26 80 56 27 81 55 27 82 54 27 83 58 28 84 57 28 85 56 28 86 60 29 87 59 29 88 58 29 89 41 30 90 49 30 91 1 30 92 62 31 93 61 31 94 60 31 95 0 32 96 63 32 97 62 32 98 26 33 99 18 33 100 2 33 101 2 34 102 3 34 103 1 34 104 4 35 105 5 35 106 3 35 107 6 36 108 7 36 109 5 36 110 8 37 111 9 37 112 7 37 113 10 38 114 11 38 115 9 38 116 12 39 117 13 39 118 11 39 119 14 40 120 15 40 121 13 40 122 16 41 123 17 41 124 15 41 125 18 42 126 19 42 127 17 42 128 20 43 129 21 43 130 19 43 131 22 44 132 23 44 133 21 44 134 24 45 135 25 45 136 23 45 137 26 46 138 27 46 139 25 46 140 28 13 141 29 13 142 27 13 143 30 47 144 31 47 145 29 47 146 32 48 147 33 48 148 31 48 149 34 49 150 35 49 151 33 49 152 36 50 153 37 50 154 35 50 155 38 18 156 39 18 157 37 18 158 40 51 159 41 51 160 39 51 161 42 52 162 43 52 163 41 52 164 44 53 165 45 53 166 43 53 167 46 54 168 47 54 169 45 54 170 48 55 171 49 55 172 47 55 173 50 56 174 51 56 175 49 56 176 52 57 177 53 57 178 51 57 179 54 58 180 55 58 181 53 58 182 56 27 183 57 27 184 55 27 185 58 59 186 59 59 187 57 59 188 60 29 189 61 29 190 59 29 191 1 60 192 3 60 193 5 60 194 5 60 195 7 60 196 1 60 197 7 60 198 9 60 199 1 60 200 9 60 201 11 60 202 13 60 203 13 60 204 15 60 205 9 60 206 15 61 207 17 61 208 9 61 209 17 60 210 19 60 211 21 60 212 21 62 213 23 62 214 25 62 215 25 63 216 27 63 217 29 63 218 29 60 219 31 60 220 25 60 221 31 60 222 33 60 223 25 60 224 33 64 225 35 64 226 37 64 227 37 65 228 39 65 229 41 65 230 41 60 231 43 60 232 45 60 233 45 60 234 47 60 235 41 60 236 47 60 237 49 60 238 41 60 239 49 60 240 51 60 241 53 60 242 53 66 243 55 66 244 57 66 245 57 60 246 59 60 247 1 60 248 59 67 249 61 67 250 1 67 251 61 68 252 63 68 253 1 68 254 17 69 255 21 69 256 25 69 257 33 60 258 37 60 259 41 60 260 49 60 261 53 60 262 1 60 263 53 70 264 57 70 265 1 70 266 1 71 267 9 71 268 17 71 269 17 72 270 25 72 271 1 72 272 25 60 273 33 60 274 1 60 275 33 60 276 41 60 277 1 60 278 62 73 279 63 73 280 61 73 281 0 74 282 1 74 283 63 74 284 2 75 285 0 75 286 58 75 287 0 76 288 62 76 289 58 76 290 62 77 291 60 77 292 58 77 293 58 78 294 56 78 295 54 78 296 54 77 297 52 77 298 58 77 299 52 77 300 50 77 301 58 77 302 50 77 303 48 77 304 46 77 305 46 77 306 44 77 307 50 77 308 44 77 309 42 77 310 50 77 311 42 79 312 40 79 313 34 79 314 40 77 315 38 77 316 34 77 317 38 77 318 36 77 319 34 77 320 34 77 321 32 77 322 30 77 323 30 77 324 28 77 325 34 77 326 28 77 327 26 77 328 34 77 329 26 77 330 24 77 331 18 77 332 24 77 333 22 77 334 18 77 335 22 80 336 20 80 337 18 80 338 18 77 339 16 77 340 14 77 341 14 77 342 12 77 343 10 77 344 10 81 345 8 81 346 6 81 347 6 77 348 4 77 349 2 77 350 18 82 351 14 82 352 2 82 353 14 77 354 10 77 355 2 77 356 10 83 357 6 83 358 2 83 359 2 77 360 58 77 361 34 77 362 58 77 363 50 77 364 34 77 365 50 77 366 42 77 367 34 77 368 34 77 369 26 77 370 2 77 371</p>
        </triangles>
      </mesh>
    </geometry>
    <geometry id="Cylinder-mesh" name="Cylinder">
      <mesh>
        <source id="Cylinder-mesh-positions">
          <float_array id="Cylinder-mesh-positions-array" count="192">-0.07715898 1.579009 3.797897 0.09472799 1.579009 3.797897 -0.07715898 1.383918 3.778683 0.09472799 1.383918 3.778683 -0.07715898 1.196325 3.721777 0.09472799 1.196325 3.721777 -0.07715898 1.023438 3.629367 0.09472799 1.023438 3.629367 -0.07715898 0.871902 3.505004 0.09472799 0.871902 3.505004 -0.07715898 0.747539 3.353468 0.09472799 0.747539 3.353468 -0.07715898 0.655129 3.180581 0.09472799 0.655129 3.180581 -0.07715898 0.598223 2.992988 0.09472799 0.598223 2.992988 -0.07715898 0.579008 2.797898 0.09472799 0.579008 2.797898 -0.07715898 0.598223 2.602807 0.09472799 0.598223 2.602807 -0.07715898 0.655129 2.415214 0.09472799 0.655129 2.415214 -0.07715898 0.747539 2.242327 0.09472799 0.747539 2.242327 -0.07715898 0.871902 2.090791 0.09472799 0.871902 2.090791 -0.07715898 1.023438 1.966428 0.09472799 1.023438 1.966428 -0.07715898 1.196325 1.874018 0.09472799 1.196325 1.874018 -0.07715898 1.383918 1.817112 0.09472799 1.383918 1.817112 -0.07715898 1.579008 1.797897 0.09472799 1.579008 1.797897 -0.07715898 1.774099 1.817112 0.09472799 1.774099 1.817112 -0.07715898 1.961692 1.874018 0.09472799 1.961692 1.874018 -0.07715898 2.134579 1.966428 0.09472799 2.134579 1.966428 -0.07715898 2.286115 2.090791 0.09472799 2.286115 2.090791 -0.07715898 2.410478 2.242327 0.09472799 2.410478 2.242327 -0.07715898 2.502888 2.415214 0.09472799 2.502888 2.415214 -0.07715898 2.559794 2.602807 0.09472799 2.559794 2.602807 -0.07715898 2.579009 2.797897 0.09472799 2.579009 2.797897 -0.07715898 2.559794 2.992987 0.09472799 2.559794 2.992987 -0.07715898 2.502888 3.180581 0.09472799 2.502888 3.180581 -0.07715898 2.410478 3.353467 0.09472799 2.410478 3.353467 -0.07715898 2.286115 3.505004 0.09472799 2.286115 3.505004 -0.07715898 2.134579 3.629367 0.09472799 2.134579 3.629367 -0.07715898 1.961692 3.721777 0.09472799 1.961692 3.721777 -0.07715898 1.774099 3.778682 0.09472799 1.774099 3.778682</float_array>
          <technique_common>
            <accessor source="#Cylinder-mesh-positions-array" count="64" stride="3">
              <param name="X" type="float"/>
              <param name="Y" type="float"/>
              <param name="Z" type="float"/>
            </accessor>
          </technique_common>
        </source>
        <source id="Cylinder-mesh-normals">
          <float_array id="Cylinder-mesh-normals-array" count="264">0 -0.09801387 0.9951851 0 -0.290286 0.9569401 0 -0.471396 0.8819217 0 -0.634396 0.7730082 0 -0.7730091 0.634395 0 -0.8819214 0.4713965 0 -0.9569398 0.2902866 0 -0.9951846 0.09801876 0 -0.9951847 -0.09801787 0 -0.9569401 -0.2902857 0 -0.8819213 -0.4713966 0 -0.7730087 -0.6343956 0 -0.6343948 -0.7730092 0 -0.4713971 -0.8819212 0 -0.2902857 -0.9569401 0 -0.09801864 -0.9951846 0 0.09801822 -0.9951847 0 0.290286 -0.9569401 0 0.4713971 -0.8819212 0 0.6343953 -0.7730088 0 0.7730074 -0.6343972 0 0.8819212 -0.4713971 0 0.9569398 -0.2902866 0 0.9951845 -0.09802055 0 0.9951846 0.09801888 0 0.9569408 0.2902833 0 0.8819213 0.4713968 0 0.7730111 0.6343926 0 0.634396 0.7730082 0 0.471396 0.8819217 1 0 0 0 0.2902815 0.9569414 0 0.09801918 0.9951846 -1 0 0 0 -0.09801393 0.9951851 0 -0.2902857 0.9569401 0 -0.6343956 0.7730087 0 -0.7730087 0.6343956 0 -0.8819211 0.4713972 0 -0.9569401 0.2902857 0 -0.9951847 0.09801834 0 -0.9951846 -0.09801828 0 -0.9569398 -0.2902866 0 -0.8819217 -0.471396 0 -0.7730091 -0.634395 0 -0.6343953 -0.7730088 0 -0.2902859 -0.9569401 0 -0.09801858 -0.9951846 0 0.09801805 -0.9951847 0 0.2902859 -0.9569401 0 0.6343953 -0.7730088 0 0.7730091 -0.634395 0 0.8819226 -0.4713943 0 0.9569404 -0.2902849 0 0.9951847 -0.09801876 0 0.9951845 0.09802067 0 0.9569403 0.2902849 0 0.8819198 0.4713996 0 0.7730094 0.6343948 0 0.634396 0.7730084 1 -1.24221e-7 0 1 -2.48446e-7 0 1 0 0 1 -2.4844e-7 0 1 -1.71068e-7 0 1 1.67777e-7 0 1 2.48446e-7 0 1 -1.67776e-7 0 1 0 0 1 1.27885e-7 0 1 0 0 1 0 0 1 0 0 1 0 0 1 0 0 0 0.2902815 0.9569414 0 0.09801936 0.9951846 -1 0 0 -1 1.67779e-7 0 -1 -2.48441e-7 0 -1 0 0 -1 2.48448e-7 0 -1 -2.48442e-7 0 -1 0 0 -1 0 0 -1 0 0 -1 0 0 -1 0 0</float_array>
          <technique_common>
            <accessor source="#Cylinder-mesh-normals-array" count="88" stride="3">
              <param name="X" type="float"/>
              <param name="Y" type="float"/>
              <param name="Z" type="float"/>
            </accessor>
          </technique_common>
        </source>
        <source id="Cylinder-mesh-map-0">
          <float_array id="Cylinder-mesh-map-0-array" count="744">0.96875 0.5 1 1 1 0.5 0.9375 0.5 0.96875 1 0.96875 0.5 0.90625 0.5 0.9375 1 0.9375 0.5 0.875 0.5 0.90625 1 0.90625 0.5 0.84375 0.5 0.875 1 0.875 0.5 0.8125 0.5 0.84375 1 0.84375 0.5 0.78125 0.5 0.8125 1 0.8125 0.5 0.75 0.5 0.78125 1 0.78125 0.5 0.71875 0.5 0.75 1 0.75 0.5 0.6875 0.5 0.71875 1 0.71875 0.5 0.65625 0.5 0.6875 1 0.6875 0.5 0.625 0.5 0.65625 1 0.65625 0.5 0.59375 0.5 0.625 1 0.625 0.5 0.5625 0.5 0.59375 1 0.59375 0.5 0.53125 0.5 0.5625 1 0.5625 0.5 0.5 0.5 0.53125 1 0.53125 0.5 0.46875 0.5 0.5 1 0.5 0.5 0.4375 0.5 0.46875 1 0.46875 0.5 0.40625 0.5 0.4375 1 0.4375 0.5 0.375 0.5 0.40625 1 0.40625 0.5 0.34375 0.5 0.375 1 0.375 0.5 0.3125 0.5 0.34375 1 0.34375 0.5 0.28125 0.5 0.3125 1 0.3125 0.5 0.25 0.5 0.28125 1 0.28125 0.5 0.21875 0.5 0.25 1 0.25 0.5 0.1875 0.5 0.21875 1 0.21875 0.5 0.15625 0.5 0.1875 1 0.1875 0.5 0.125 0.5 0.15625 1 0.15625 0.5 0.09375 0.5 0.125 1 0.125 0.5 0.0625 0.5 0.09375 1 0.09375 0.5 0.00999999 0.25 0.08029395 0.419706 0.25 0.49 0.03125 0.5 0.0625 1 0.0625 0.5 0 0.5 0.03125 1 0.03125 0.5 0.796822 0.485388 0.514612 0.296822 0.703178 0.01461195 0.96875 0.5 0.96875 1 1 1 0.9375 0.5 0.9375 1 0.96875 1 0.90625 0.5 0.90625 1 0.9375 1 0.875 0.5 0.875 1 0.90625 1 0.84375 0.5 0.84375 1 0.875 1 0.8125 0.5 0.8125 1 0.84375 1 0.78125 0.5 0.78125 1 0.8125 1 0.75 0.5 0.75 1 0.78125 1 0.71875 0.5 0.71875 1 0.75 1 0.6875 0.5 0.6875 1 0.71875 1 0.65625 0.5 0.65625 1 0.6875 1 0.625 0.5 0.625 1 0.65625 1 0.59375 0.5 0.59375 1 0.625 1 0.5625 0.5 0.5625 1 0.59375 1 0.53125 0.5 0.53125 1 0.5625 1 0.5 0.5 0.5 1 0.53125 1 0.46875 0.5 0.46875 1 0.5 1 0.4375 0.5 0.4375 1 0.46875 1 0.40625 0.5 0.40625 1 0.4375 1 0.375 0.5 0.375 1 0.40625 1 0.34375 0.5 0.34375 1 0.375 1 0.3125 0.5 0.3125 1 0.34375 1 0.28125 0.5 0.28125 1 0.3125 1 0.25 0.5 0.25 1 0.28125 1 0.21875 0.5 0.21875 1 0.25 1 0.1875 0.5 0.1875 1 0.21875 1 0.15625 0.5 0.15625 1 0.1875 1 0.125 0.5 0.125 1 0.15625 1 0.09375 0.5 0.09375 1 0.125 1 0.0625 0.5 0.0625 1 0.09375 1 0.25 0.49 0.296822 0.485388 0.341844 0.471731 0.341844 0.471731 0.383337 0.449553 0.419706 0.419706 0.419706 0.419706 0.449553 0.383337 0.471731 0.341844 0.471731 0.341844 0.485388 0.296822 0.49 0.25 0.49 0.25 0.485388 0.203178 0.471731 0.158156 0.471731 0.158156 0.449553 0.116663 0.419706 0.08029395 0.419706 0.08029395 0.383337 0.05044698 0.341844 0.02826899 0.341844 0.02826899 0.296822 0.01461195 0.419706 0.08029395 0.296822 0.01461195 0.25 0.00999999 0.419706 0.08029395 0.25 0.00999999 0.203178 0.01461195 0.158156 0.02826899 0.158156 0.02826899 0.116663 0.05044698 0.08029395 0.08029395 0.08029395 0.08029395 0.05044698 0.116663 0.02826899 0.158156 0.02826899 0.158156 0.01461195 0.203178 0.08029395 0.08029395 0.01461195 0.203178 0.00999999 0.25 0.08029395 0.08029395 0.00999999 0.25 0.01461195 0.296822 0.08029395 0.419706 0.01461195 0.296822 0.02826899 0.341844 0.08029395 0.419706 0.02826899 0.341844 0.05044698 0.383337 0.08029395 0.419706 0.08029395 0.419706 0.116663 0.449553 0.158156 0.471731 0.158156 0.471731 0.203178 0.485388 0.08029395 0.419706 0.203178 0.485388 0.25 0.49 0.08029395 0.419706 0.25 0.49 0.341844 0.471731 0.419706 0.419706 0.419706 0.419706 0.471731 0.341844 0.49 0.25 0.49 0.25 0.471731 0.158156 0.419706 0.08029395 0.25 0.00999999 0.158156 0.02826899 0.08029395 0.08029395 0.25 0.49 0.419706 0.419706 0.49 0.25 0.49 0.25 0.419706 0.08029395 0.25 0.49 0.419706 0.08029395 0.25 0.00999999 0.25 0.49 0.25 0.00999999 0.08029395 0.08029395 0.25 0.49 0.08029395 0.08029395 0.00999999 0.25 0.25 0.49 0.03125 0.5 0.03125 1 0.0625 1 0 0.5 0 1 0.03125 1 0.796822 0.485388 0.75 0.49 0.703178 0.485388 0.703178 0.485388 0.658156 0.471731 0.616663 0.449553 0.616663 0.449553 0.580294 0.419706 0.514612 0.296822 0.580294 0.419706 0.550447 0.383337 0.514612 0.296822 0.550447 0.383337 0.528269 0.341844 0.514612 0.296822 0.514612 0.296822 0.51 0.25 0.514612 0.203178 0.514612 0.203178 0.528269 0.158156 0.514612 0.296822 0.528269 0.158156 0.550447 0.116663 0.514612 0.296822 0.550447 0.116663 0.580294 0.08029395 0.703178 0.01461195 0.580294 0.08029395 0.616663 0.05044698 0.703178 0.01461195 0.616663 0.05044698 0.658156 0.02826899 0.703178 0.01461195 0.703178 0.01461195 0.75 0.00999999 0.796822 0.01461195 0.796822 0.01461195 0.841844 0.02826899 0.703178 0.01461195 0.841844 0.02826899 0.883337 0.05044698 0.703178 0.01461195 0.883337 0.05044698 0.919706 0.08029395 0.985388 0.203178 0.919706 0.08029395 0.949553 0.116663 0.985388 0.203178 0.949553 0.116663 0.971731 0.158156 0.985388 0.203178 0.985388 0.203178 0.99 0.25 0.985388 0.296822 0.985388 0.296822 0.971731 0.341844 0.985388 0.203178 0.971731 0.341844 0.949553 0.383337 0.985388 0.203178 0.949553 0.383337 0.919706 0.419706 0.796822 0.485388 0.919706 0.419706 0.883337 0.449553 0.796822 0.485388 0.883337 0.449553 0.841844 0.471731 0.796822 0.485388 0.796822 0.485388 0.703178 0.485388 0.514612 0.296822 0.703178 0.485388 0.616663 0.449553 0.514612 0.296822 0.514612 0.296822 0.550447 0.116663 0.703178 0.01461195 0.703178 0.01461195 0.883337 0.05044698 0.796822 0.485388 0.883337 0.05044698 0.985388 0.203178 0.796822 0.485388 0.985388 0.203178 0.949553 0.383337 0.796822 0.485388</float_array>
          <technique_common>
            <accessor source="#Cylinder-mesh-map-0-array" count="372" stride="2">
              <param name="S" type="float"/>
              <param name="T" type="float"/>
            </accessor>
          </technique_common>
        </source>
        <vertices id="Cylinder-mesh-vertices">
          <input semantic="POSITION" source="#Cylinder-mesh-positions"/>
        </vertices>
        <triangles count="124">
          <input semantic="VERTEX" source="#Cylinder-mesh-vertices" offset="0"/>
          <input semantic="NORMAL" source="#Cylinder-mesh-normals" offset="1"/>
          <input semantic="TEXCOORD" source="#Cylinder-mesh-map-0" offset="2" set="2"/>
          <p>2 0 0 1 0 1 0 0 2 4 1 3 3 1 4 2 1 5 6 2 6 5 2 7 4 2 8 8 3 9 7 3 10 6 3 11 10 4 12 9 4 13 8 4 14 12 5 15 11 5 16 10 5 17 14 6 18 13 6 19 12 6 20 16 7 21 15 7 22 14 7 23 18 8 24 17 8 25 16 8 26 20 9 27 19 9 28 18 9 29 22 10 30 21 10 31 20 10 32 24 11 33 23 11 34 22 11 35 26 12 36 25 12 37 24 12 38 28 13 39 27 13 40 26 13 41 30 14 42 29 14 43 28 14 44 32 15 45 31 15 46 30 15 47 34 16 48 33 16 49 32 16 50 36 17 51 35 17 52 34 17 53 38 18 54 37 18 55 36 18 56 40 19 57 39 19 58 38 19 59 42 20 60 41 20 61 40 20 62 44 21 63 43 21 64 42 21 65 46 22 66 45 22 67 44 22 68 48 23 69 47 23 70 46 23 71 50 24 72 49 24 73 48 24 74 52 25 75 51 25 76 50 25 77 54 26 78 53 26 79 52 26 80 56 27 81 55 27 82 54 27 83 58 28 84 57 28 85 56 28 86 60 29 87 59 29 88 58 29 89 49 30 90 57 30 91 1 30 92 62 31 93 61 31 94 60 31 95 0 32 96 63 32 97 62 32 98 2 33 99 50 33 100 34 33 101 2 34 102 3 34 103 1 34 104 4 35 105 5 35 106 3 35 107 6 2 108 7 2 109 5 2 110 8 36 111 9 36 112 7 36 113 10 37 114 11 37 115 9 37 116 12 38 117 13 38 118 11 38 119 14 39 120 15 39 121 13 39 122 16 40 123 17 40 124 15 40 125 18 41 126 19 41 127 17 41 128 20 42 129 21 42 130 19 42 131 22 43 132 23 43 133 21 43 134 24 44 135 25 44 136 23 44 137 26 45 138 27 45 139 25 45 140 28 13 141 29 13 142 27 13 143 30 46 144 31 46 145 29 46 146 32 47 147 33 47 148 31 47 149 34 48 150 35 48 151 33 48 152 36 49 153 37 49 154 35 49 155 38 18 156 39 18 157 37 18 158 40 50 159 41 50 160 39 50 161 42 51 162 43 51 163 41 51 164 44 52 165 45 52 166 43 52 167 46 53 168 47 53 169 45 53 170 48 54 171 49 54 172 47 54 173 50 55 174 51 55 175 49 55 176 52 56 177 53 56 178 51 56 179 54 57 180 55 57 181 53 57 182 56 58 183 57 58 184 55 58 185 58 59 186 59 59 187 57 59 188 60 29 189 61 29 190 59 29 191 1 60 192 3 60 193 5 60 194 5 61 195 7 61 196 9 61 197 9 62 198 11 62 199 13 62 200 13 62 201 15 62 202 17 62 203 17 62 204 19 62 205 21 62 206 21 63 207 23 63 208 25 63 209 25 62 210 27 62 211 29 62 212 29 62 213 31 62 214 25 62 215 31 62 216 33 62 217 25 62 218 33 62 219 35 62 220 37 62 221 37 62 222 39 62 223 41 62 224 41 62 225 43 62 226 45 62 227 45 62 228 47 62 229 41 62 230 47 62 231 49 62 232 41 62 233 49 64 234 51 64 235 57 64 236 51 65 237 53 65 238 57 65 239 53 62 240 55 62 241 57 62 242 57 66 243 59 66 244 61 66 245 61 67 246 63 67 247 57 67 248 63 62 249 1 62 250 57 62 251 1 68 252 5 68 253 9 68 254 9 62 255 13 62 256 17 62 257 17 69 258 21 69 259 25 69 260 33 62 261 37 62 262 41 62 263 1 70 264 9 70 265 17 70 266 17 71 267 25 71 268 1 71 269 25 72 270 33 72 271 1 72 272 33 73 273 41 73 274 1 73 275 41 74 276 49 74 277 1 74 278 62 75 279 63 75 280 61 75 281 0 76 282 1 76 283 63 76 284 2 77 285 0 77 286 62 77 287 62 77 288 60 77 289 58 77 290 58 77 291 56 77 292 50 77 293 56 78 294 54 78 295 50 78 296 54 77 297 52 77 298 50 77 299 50 79 300 48 79 301 46 79 302 46 77 303 44 77 304 50 77 305 44 77 306 42 77 307 50 77 308 42 80 309 40 80 310 34 80 311 40 77 312 38 77 313 34 77 314 38 77 315 36 77 316 34 77 317 34 77 318 32 77 319 30 77 320 30 77 321 28 77 322 34 77 323 28 77 324 26 77 325 34 77 326 26 77 327 24 77 328 18 77 329 24 77 330 22 77 331 18 77 332 22 81 333 20 81 334 18 81 335 18 82 336 16 82 337 14 82 338 14 77 339 12 77 340 18 77 341 12 77 342 10 77 343 18 77 344 10 83 345 8 83 346 2 83 347 8 77 348 6 77 349 2 77 350 6 77 351 4 77 352 2 77 353 2 77 354 62 77 355 50 77 356 62 77 357 58 77 358 50 77 359 50 84 360 42 84 361 34 84 362 34 85 363 26 85 364 2 85 365 26 86 366 18 86 367 2 86 368 18 87 369 10 87 370 2 87 371</p>
        </triangles>
      </mesh>
    </geometry>
    <geometry id="Cone-mesh" name="Cone">
      <mesh>
        <source id="Cone-mesh-positions">
          <float_array id="Cone-mesh-positions-array" count="195">0 0.778294 0.160252 -0.14389 0.763339 0.160252 -0.28225 0.71905 0.160252 -0.409763 0.647128 0.160252 -0.52153 0.550337 0.160252 -0.613254 0.432397 0.160252 -0.681411 0.29784 0.160252 -0.723382 0.151837 0.160252 -0.737554 0 0.160252 -0.723382 -0.151838 0.160252 -0.681411 -0.297841 0.160252 -0.613254 -0.432397 0.160252 -0.52153 -0.550337 0.160252 -0.409763 -0.647128 0.160252 -0.28225 -0.71905 0.160252 -0.14389 -0.76334 0.160252 0 -0.778295 0.160252 0.14389 -0.76334 0.160252 0.28225 -0.71905 0.160252 0.409763 -0.647128 0.160252 0.52153 -0.550337 0.160252 0.613254 -0.432397 0.160252 0.681412 -0.297841 0.160252 0.723383 -0.151838 0.160252 0.737555 0 0.160253 0.723383 0.151837 0.160253 0.681412 0.29784 0.160253 0.613254 0.432397 0.160253 0.52153 0.550337 0.160253 0.409763 0.647128 0.160253 0.28225 0.71905 0.160252 0.14389 0.763339 0.160252 0 0 2.160252 0 0.778294 0.160252 -0.14389 0.763339 0.160252 -0.28225 0.71905 0.160252 -0.409763 0.647128 0.160252 -0.52153 0.550337 0.160252 -0.613254 0.432397 0.160252 -0.681411 0.29784 0.160252 -0.723382 0.151837 0.160252 -0.737554 0 0.160252 -0.723382 -0.151838 0.160252 -0.681411 -0.297841 0.160252 -0.613254 -0.432397 0.160252 -0.52153 -0.550337 0.160252 -0.409763 -0.647128 0.160252 -0.28225 -0.71905 0.160252 -0.14389 -0.76334 0.160252 0 -0.778295 0.160252 0.14389 -0.76334 0.160252 0.28225 -0.71905 0.160252 0.409763 -0.647128 0.160252 0.52153 -0.550337 0.160252 0.613254 -0.432397 0.160252 0.681412 -0.297841 0.160252 0.723383 -0.151838 0.160252 0.737555 0 0.160253 0.723383 0.151837 0.160253 0.681412 0.29784 0.160253 0.613254 0.432397 0.160253 0.52153 0.550337 0.160253 0.409763 0.647128 0.160253 0.28225 0.71905 0.160252 0.14389 0.763339 0.160252</float_array>
          <technique_common>
            <accessor source="#Cone-mesh-positions-array" count="65" stride="3">
              <param name="X" type="float"/>
              <param name="Y" type="float"/>
              <param name="Z" type="float"/>
            </accessor>
          </technique_common>
        </source>
        <source id="Cone-mesh-normals">
          <float_array id="Cone-mesh-normals-array" count="150">-0.09640723 0.9275825 0.360966 -0.2844634 0.8886713 0.3596444 -0.4588595 0.8135279 0.3572401 -0.6122125 0.7069367 0.3541702 -0.7391709 0.5748663 0.350935 -0.8363175 0.4236189 0.3480232 -0.9017721 0.2592292 0.3458431 -0.9346578 0.08723819 0.3446803 -0.9346579 -0.08723759 0.3446803 -0.901772 -0.2592292 0.3458432 -0.8363162 -0.4236214 0.3480234 -0.7391709 -0.5748663 0.350935 -0.6122125 -0.7069367 0.3541702 -0.4588595 -0.8135279 0.3572401 -0.2844696 -0.8886692 0.3596445 -0.09640645 -0.9275824 0.3609663 0.09640645 -0.9275824 0.3609663 0.2844696 -0.8886693 0.3596445 0.4588595 -0.8135279 0.3572401 0.6122125 -0.7069367 0.3541702 0.7391709 -0.5748663 0.350935 0.8363137 -0.4236261 0.3480237 0.9017717 -0.2592295 0.3458436 0.9346575 -0.0872398 0.3446808 0.9346575 0.08723819 0.3446809 0.9017718 0.2592293 0.3458437 0.8363149 0.4236238 0.3480237 0.739171 0.574866 0.3509351 0.6122121 0.706937 0.3541703 0.4588572 0.813529 0.3572402 1.24795e-6 -1.53822e-6 -1 1.0862e-6 -2.34529e-6 -1 8.31841e-7 -1.18708e-6 -1 0.2844634 0.8886712 0.3596444 0.09640723 0.9275825 0.360966 0 0 1 0 0 -1 0 -1.24176e-5 -1 8.38894e-7 6.99049e-7 -1 1.02512e-6 -8.1657e-7 -1 8.08215e-7 4.80411e-7 -1 8.01518e-7 -4.10359e-7 -1 7.46353e-7 2.58401e-7 -1 6.95085e-7 0 -1 7.15315e-7 -2.48482e-7 -1 3.64862e-7 3.09104e-6 -1 6.88144e-7 0 -1 0 3.70265e-6 -1 3.60105e-7 2.63815e-7 -1 6.99727e-7 -1.22936e-7 -1</float_array>
          <technique_common>
            <accessor source="#Cone-mesh-normals-array" count="50" stride="3">
              <param name="X" type="float"/>
              <param name="Y" type="float"/>
              <param name="Z" type="float"/>
            </accessor>
          </technique_common>
        </source>
        <source id="Cone-mesh-map-0">
          <float_array id="Cone-mesh-map-0-array" count="756">0.25 0.49 0.296822 0.485388 0.25 0.25 0.296822 0.485388 0.341844 0.471731 0.25 0.25 0.341844 0.471731 0.383337 0.449553 0.25 0.25 0.383337 0.449553 0.419706 0.419706 0.25 0.25 0.419706 0.419706 0.449553 0.383337 0.25 0.25 0.449553 0.383337 0.471731 0.341844 0.25 0.25 0.471731 0.341844 0.485388 0.296822 0.25 0.25 0.485388 0.296822 0.49 0.25 0.25 0.25 0.49 0.25 0.485388 0.203178 0.25 0.25 0.485388 0.203178 0.471731 0.158156 0.25 0.25 0.471731 0.158156 0.449553 0.116663 0.25 0.25 0.449553 0.116663 0.419706 0.08029395 0.25 0.25 0.419706 0.08029395 0.383337 0.05044698 0.25 0.25 0.383337 0.05044698 0.341844 0.02826899 0.25 0.25 0.341844 0.02826899 0.296822 0.01461195 0.25 0.25 0.296822 0.01461195 0.25 0.00999999 0.25 0.25 0.25 0.00999999 0.203178 0.01461195 0.25 0.25 0.203178 0.01461195 0.158156 0.02826899 0.25 0.25 0.158156 0.02826899 0.116663 0.05044698 0.25 0.25 0.116663 0.05044698 0.08029395 0.08029395 0.25 0.25 0.08029395 0.08029395 0.05044698 0.116663 0.25 0.25 0.05044698 0.116663 0.02826899 0.158156 0.25 0.25 0.02826899 0.158156 0.01461195 0.203178 0.25 0.25 0.01461195 0.203178 0.00999999 0.25 0.25 0.25 0.00999999 0.25 0.01461195 0.296822 0.25 0.25 0.01461195 0.296822 0.02826899 0.341844 0.25 0.25 0.02826899 0.341844 0.05044698 0.383337 0.25 0.25 0.05044698 0.383337 0.08029395 0.419706 0.25 0.25 0.08029395 0.419706 0.116663 0.449553 0.25 0.25 0.116663 0.449553 0.158156 0.471731 0.25 0.25 0.883337 0.449553 0.841844 0.471731 0.616663 0.449553 0.158156 0.471731 0.203178 0.485388 0.25 0.25 0.203178 0.485388 0.25 0.49 0.25 0.25 0.02826899 0.341844 0.01461195 0.296822 0.02826899 0.341844 0.471731 0.341844 0.449553 0.383337 0.471731 0.341844 0.383337 0.05044698 0.419706 0.08029395 0.383337 0.05044698 0.08029395 0.08029395 0.116663 0.05044698 0.08029395 0.08029395 0.05044698 0.383337 0.02826899 0.341844 0.05044698 0.383337 0.485388 0.296822 0.471731 0.341844 0.485388 0.296822 0.296822 0.485388 0.25 0.49 0.296822 0.485388 0.341844 0.02826899 0.383337 0.05044698 0.341844 0.02826899 0.05044698 0.116663 0.08029395 0.08029395 0.05044698 0.116663 0.08029395 0.419706 0.05044698 0.383337 0.08029395 0.419706 0.49 0.25 0.485388 0.296822 0.49 0.25 0.296822 0.01461195 0.341844 0.02826899 0.296822 0.01461195 0.02826899 0.158156 0.05044698 0.116663 0.02826899 0.158156 0.341844 0.471731 0.296822 0.485388 0.341844 0.471731 0.116663 0.449553 0.08029395 0.419706 0.116663 0.449553 0.485388 0.203178 0.49 0.25 0.485388 0.203178 0.25 0.00999999 0.296822 0.01461195 0.25 0.00999999 0.01461195 0.203178 0.02826899 0.158156 0.01461195 0.203178 0.383337 0.449553 0.341844 0.471731 0.383337 0.449553 0.158156 0.471731 0.116663 0.449553 0.158156 0.471731 0.471731 0.158156 0.485388 0.203178 0.471731 0.158156 0.203178 0.01461195 0.25 0.00999999 0.203178 0.01461195 0.00999999 0.25 0.01461195 0.203178 0.00999999 0.25 0.419706 0.419706 0.383337 0.449553 0.419706 0.419706 0.658156 0.471731 0.703178 0.485388 0.658156 0.471731 0.449553 0.116663 0.471731 0.158156 0.449553 0.116663 0.158156 0.02826899 0.203178 0.01461195 0.158156 0.02826899 0.01461195 0.296822 0.00999999 0.25 0.01461195 0.296822 0.449553 0.383337 0.419706 0.419706 0.449553 0.383337 0.703178 0.485388 0.75 0.49 0.703178 0.485388 0.419706 0.08029395 0.449553 0.116663 0.419706 0.08029395 0.116663 0.05044698 0.158156 0.02826899 0.116663 0.05044698 0.796822 0.485388 0.75 0.49 0.703178 0.485388 0.703178 0.485388 0.658156 0.471731 0.796822 0.485388 0.658156 0.471731 0.616663 0.449553 0.841844 0.471731 0.796822 0.485388 0.658156 0.471731 0.841844 0.471731 0.616663 0.449553 0.580294 0.419706 0.919706 0.419706 0.580294 0.419706 0.550447 0.383337 0.949553 0.383337 0.550447 0.383337 0.528269 0.341844 0.949553 0.383337 0.528269 0.341844 0.514612 0.296822 0.971731 0.341844 0.949553 0.383337 0.528269 0.341844 0.971731 0.341844 0.514612 0.296822 0.51 0.25 0.99 0.25 0.51 0.25 0.514612 0.203178 0.985388 0.203178 0.514612 0.203178 0.528269 0.158156 0.985388 0.203178 0.528269 0.158156 0.550447 0.116663 0.971731 0.158156 0.985388 0.203178 0.528269 0.158156 0.971731 0.158156 0.550447 0.116663 0.580294 0.08029395 0.919706 0.08029395 0.580294 0.08029395 0.616663 0.05044698 0.883337 0.05044698 0.616663 0.05044698 0.658156 0.02826899 0.883337 0.05044698 0.658156 0.02826899 0.703178 0.01461195 0.841844 0.02826899 0.883337 0.05044698 0.658156 0.02826899 0.841844 0.02826899 0.703178 0.01461195 0.75 0.00999999 0.796822 0.01461195 0.796822 0.01461195 0.841844 0.02826899 0.703178 0.01461195 0.883337 0.05044698 0.919706 0.08029395 0.580294 0.08029395 0.919706 0.08029395 0.949553 0.116663 0.550447 0.116663 0.949553 0.116663 0.971731 0.158156 0.550447 0.116663 0.985388 0.203178 0.99 0.25 0.51 0.25 0.99 0.25 0.985388 0.296822 0.514612 0.296822 0.985388 0.296822 0.971731 0.341844 0.514612 0.296822 0.949553 0.383337 0.919706 0.419706 0.580294 0.419706 0.919706 0.419706 0.883337 0.449553 0.616663 0.449553 0.02826899 0.341844 0.01461195 0.296822 0.01461195 0.296822 0.471731 0.341844 0.449553 0.383337 0.449553 0.383337 0.383337 0.05044698 0.419706 0.08029395 0.419706 0.08029395 0.08029395 0.08029395 0.116663 0.05044698 0.116663 0.05044698 0.05044698 0.383337 0.02826899 0.341844 0.02826899 0.341844 0.485388 0.296822 0.471731 0.341844 0.471731 0.341844 0.296822 0.485388 0.25 0.49 0.25 0.49 0.341844 0.02826899 0.383337 0.05044698 0.383337 0.05044698 0.05044698 0.116663 0.08029395 0.08029395 0.08029395 0.08029395 0.08029395 0.419706 0.05044698 0.383337 0.05044698 0.383337 0.49 0.25 0.485388 0.296822 0.485388 0.296822 0.296822 0.01461195 0.341844 0.02826899 0.341844 0.02826899 0.02826899 0.158156 0.05044698 0.116663 0.05044698 0.116663 0.341844 0.471731 0.296822 0.485388 0.296822 0.485388 0.116663 0.449553 0.08029395 0.419706 0.08029395 0.419706 0.485388 0.203178 0.49 0.25 0.49 0.25 0.25 0.00999999 0.296822 0.01461195 0.296822 0.01461195 0.01461195 0.203178 0.02826899 0.158156 0.02826899 0.158156 0.383337 0.449553 0.341844 0.471731 0.341844 0.471731 0.158156 0.471731 0.116663 0.449553 0.116663 0.449553 0.471731 0.158156 0.485388 0.203178 0.485388 0.203178 0.203178 0.01461195 0.25 0.00999999 0.25 0.00999999 0.00999999 0.25 0.01461195 0.203178 0.01461195 0.203178 0.419706 0.419706 0.383337 0.449553 0.383337 0.449553 0.658156 0.471731 0.703178 0.485388 0.703178 0.485388 0.449553 0.116663 0.471731 0.158156 0.471731 0.158156 0.158156 0.02826899 0.203178 0.01461195 0.203178 0.01461195 0.01461195 0.296822 0.00999999 0.25 0.00999999 0.25 0.449553 0.383337 0.419706 0.419706 0.419706 0.419706 0.703178 0.485388 0.75 0.49 0.75 0.49 0.419706 0.08029395 0.449553 0.116663 0.449553 0.116663 0.116663 0.05044698 0.158156 0.02826899 0.158156 0.02826899</float_array>
          <technique_common>
            <accessor source="#Cone-mesh-map-0-array" count="378" stride="2">
              <param name="S" type="float"/>
              <param name="T" type="float"/>
            </accessor>
          </technique_common>
        </source>
        <vertices id="Cone-mesh-vertices">
          <input semantic="POSITION" source="#Cone-mesh-positions"/>
        </vertices>
        <triangles count="126">
          <input semantic="VERTEX" source="#Cone-mesh-vertices" offset="0"/>
          <input semantic="NORMAL" source="#Cone-mesh-normals" offset="1"/>
          <input semantic="TEXCOORD" source="#Cone-mesh-map-0" offset="2" set="2"/>
          <p>0 0 0 1 0 1 32 0 2 1 1 3 2 1 4 32 1 5 2 2 6 3 2 7 32 2 8 3 3 9 4 3 10 32 3 11 4 4 12 5 4 13 32 4 14 5 5 15 6 5 16 32 5 17 6 6 18 7 6 19 32 6 20 7 7 21 8 7 22 32 7 23 8 8 24 9 8 25 32 8 26 9 9 27 10 9 28 32 9 29 10 10 30 11 10 31 32 10 32 11 11 33 12 11 34 32 11 35 12 12 36 13 12 37 32 12 38 13 13 39 14 13 40 32 13 41 14 14 42 15 14 43 32 14 44 15 15 45 16 15 46 32 15 47 16 16 48 17 16 49 32 16 50 17 17 51 18 17 52 32 17 53 18 18 54 19 18 55 32 18 56 19 19 57 20 19 58 32 19 59 20 20 60 21 20 61 32 20 62 21 21 63 22 21 64 32 21 65 22 22 66 23 22 67 32 22 68 23 23 69 24 23 70 32 23 71 24 24 72 25 24 73 32 24 74 25 25 75 26 25 76 32 25 77 26 26 78 27 26 79 32 26 80 27 27 81 28 27 82 32 27 83 28 28 84 29 28 85 32 28 86 29 29 87 30 29 88 32 29 89 3 30 90 2 31 91 29 32 92 30 33 93 31 33 94 32 33 95 31 34 96 0 34 97 32 34 98 59 35 99 25 35 100 26 35 101 39 35 102 5 35 103 6 35 104 46 35 105 12 35 106 13 35 107 53 35 108 19 35 109 20 35 110 60 35 111 26 35 112 27 35 113 40 35 114 6 35 115 7 35 116 34 35 117 0 35 118 1 35 119 47 35 120 13 35 121 14 35 122 54 35 123 20 35 124 21 35 125 61 35 126 27 35 127 28 35 128 41 35 129 7 35 130 8 35 131 48 35 132 14 35 133 15 35 134 55 35 135 21 35 136 22 35 137 35 35 138 1 35 139 2 35 140 62 35 141 28 35 142 29 35 143 42 35 144 8 35 145 9 35 146 49 35 147 15 35 148 16 35 149 56 35 150 22 35 151 23 35 152 36 35 153 2 35 154 3 35 155 63 35 156 29 35 157 30 35 158 43 35 159 9 35 160 10 35 161 50 35 162 16 35 163 17 35 164 57 35 165 23 35 166 24 35 167 37 35 168 3 35 169 4 35 170 63 35 171 31 35 172 30 35 173 44 35 174 10 35 175 11 35 176 51 35 177 17 35 178 18 35 179 58 35 180 24 35 181 25 35 182 38 35 183 4 35 184 5 35 185 64 35 186 0 35 187 31 35 188 45 35 189 11 35 190 12 35 191 52 35 192 18 35 193 19 35 194 1 36 195 0 36 196 31 36 197 31 36 198 30 37 199 1 36 200 30 37 201 29 32 202 2 31 203 1 36 204 30 37 205 2 31 206 29 32 207 28 38 208 4 39 209 28 38 210 27 40 211 5 41 212 27 40 213 26 42 214 5 41 215 26 42 216 25 43 217 6 44 218 5 41 219 26 42 220 6 44 221 25 43 222 24 45 223 8 46 224 24 45 225 23 47 226 9 48 227 23 47 228 22 36 229 9 48 230 22 36 231 21 36 232 10 36 233 9 48 234 22 36 235 10 36 236 21 36 237 20 36 238 12 36 239 20 36 240 19 36 241 13 36 242 19 36 243 18 36 244 13 36 245 18 36 246 17 36 247 14 36 248 13 36 249 18 36 250 14 36 251 17 36 252 16 36 253 15 36 254 15 36 255 14 36 256 17 36 257 13 36 258 12 36 259 20 36 260 12 36 261 11 36 262 21 36 263 11 36 264 10 36 265 21 36 266 9 48 267 8 46 268 24 45 269 8 46 270 7 49 271 25 43 272 7 49 273 6 44 274 25 43 275 5 41 276 4 39 277 28 38 278 4 39 279 3 30 280 29 32 281 59 35 282 58 35 283 25 35 284 39 35 285 38 35 286 5 35 287 46 35 288 45 35 289 12 35 290 53 35 291 52 35 292 19 35 293 60 35 294 59 35 295 26 35 296 40 35 297 39 35 298 6 35 299 34 35 300 33 35 301 0 35 302 47 35 303 46 35 304 13 35 305 54 35 306 53 35 307 20 35 308 61 35 309 60 35 310 27 35 311 41 35 312 40 35 313 7 35 314 48 35 315 47 35 316 14 35 317 55 35 318 54 35 319 21 35 320 35 35 321 34 35 322 1 35 323 62 35 324 61 35 325 28 35 326 42 35 327 41 35 328 8 35 329 49 35 330 48 35 331 15 35 332 56 35 333 55 35 334 22 35 335 36 35 336 35 35 337 2 35 338 63 35 339 62 35 340 29 35 341 43 35 342 42 35 343 9 35 344 50 35 345 49 35 346 16 35 347 57 35 348 56 35 349 23 35 350 37 35 351 36 35 352 3 35 353 63 35 354 64 35 355 31 35 356 44 35 357 43 35 358 10 35 359 51 35 360 50 35 361 17 35 362 58 35 363 57 35 364 24 35 365 38 35 366 37 35 367 4 35 368 64 35 369 33 35 370 0 35 371 45 35 372 44 35 373 11 35 374 52 35 375 51 35 376 18 35 377</p>
        </triangles>
      </mesh>
    </geometry>
    <geometry id="Camera-mesh" name="Camera">
      <mesh>
        <source id="Camera-mesh-positions">
          <float_array id="Camera-mesh-positions-array" count="123">0.737554 1 5.171229 0.737554 -1 5.17123 0.737554 1 1.171229 0.737554 -1 1.17123 -0.737554 1 5.171229 -0.737554 -1 5.17123 -0.737554 1 1.171229 -0.737554 -1 1.17123 0 -1 4.17123 0.14389 -1 4.152015 0.28225 -1 4.095109 0.409763 -1 4.002699 0.52153 -1 3.878336 0.613254 -1 3.7268 0.681411 -1 3.553913 0.723383 -1 3.36632 0.737554 -1 3.17123 0.723383 -1 2.97614 0.681411 -1 2.788546 0.613254 -1 2.615659 0.52153 -1 2.464123 0.409763 -1 2.33976 0.28225 -1 2.24735 0.14389 -1 2.190444 0 -1 2.17123 -0.14389 -1 2.190444 -0.28225 -1 2.24735 -0.409763 -1 2.33976 -0.52153 -1 2.464123 -0.613254 -1 2.615659 -0.681411 -1 2.788546 -0.723383 -1 2.97614 -0.737554 -1 3.17123 -0.723383 -1 3.36632 -0.681411 -1 3.553913 -0.613254 -1 3.7268 -0.52153 -1 3.878336 -0.409763 -1 4.002699 -0.28225 -1 4.095109 -0.14389 -1 4.152015 0 1 3.171229</float_array>
          <technique_common>
            <accessor source="#Camera-mesh-positions-array" count="41" stride="3">
              <param name="X" type="float"/>
              <param name="Y" type="float"/>
              <param name="Z" type="float"/>
            </accessor>
          </technique_common>
        </source>
        <source id="Camera-mesh-normals">
          <float_array id="Camera-mesh-normals-array" count="150">0 1 0 0 -4.76837e-7 -1 -1 0 0 -1 0 0 -1 0 0 0 -1 0 1 0 0 1 0 0 1 0 0 0 4.76837e-7 1 0.1185961 0.4440578 0.8881147 0.3427969 0.4333883 0.8334656 0.5337502 0.4155448 0.7365007 0.6832088 0.3952426 0.6140106 0.792606 0.376305 0.4797608 0.8675708 0.3610293 0.3420216 0.913959 0.3505186 0.2044888 0.9360637 0.345198 0.06799393 0.9360634 0.3451989 -0.06799405 0.9139595 0.350518 -0.2044879 0.8675707 0.3610295 -0.3420216 0.7926061 0.3763046 -0.4797608 0.6832089 0.3952423 -0.6140107 0.5337504 0.4155443 -0.7365009 0.342797 0.4333878 -0.8334659 0.1185932 0.4440571 -0.8881154 -0.1185932 0.4440571 -0.8881154 -0.342797 0.4333878 -0.8334659 -0.5337504 0.4155443 -0.7365009 -0.6832089 0.3952423 -0.6140107 -0.7926061 0.3763047 -0.4797608 -0.8675707 0.3610295 -0.3420216 -0.9139595 0.350518 -0.2044879 -0.9360634 0.345199 -0.06799405 -0.9360637 0.345198 0.06799393 -0.913959 0.3505185 0.2044888 -0.8675708 0.3610293 0.3420216 -0.792606 0.376305 0.4797608 -0.6832088 0.3952426 0.6140106 -0.5337502 0.4155448 0.7365007 0 -1 9.19308e-7 0 -1 0 -0.3427969 0.4333884 0.8334656 -0.1185961 0.4440578 0.8881147 -1 0 0 1 0 0 0 -1 2.7954e-7 0 -1 -2.7954e-7 0 -1 -9.19308e-7 0 -1 0</float_array>
          <technique_common>
            <accessor source="#Camera-mesh-normals-array" count="50" stride="3">
              <param name="X" type="float"/>
              <param name="Y" type="float"/>
              <param name="Z" type="float"/>
            </accessor>
          </technique_common>
        </source>
        <source id="Camera-mesh-map-0">
          <float_array id="Camera-mesh-map-0-array" count="444">0.625 0.75 0.875 0.5 0.625 0.5 0.375 1 0.625 0.75 0.375 0.75 0.375 0 0.625 0.25 0.625 0 0.125 0.75 0.375 0.5 0.125 0.5 0.375 0.75 0.625 0.5 0.375 0.5 0.375 0.5 0.625 0.25 0.375 0.25 0.25 0.49 0.296822 0.485388 0.25 0.25 0.296822 0.485388 0.341844 0.471731 0.25 0.25 0.341844 0.471731 0.383337 0.449553 0.25 0.25 0.383337 0.449553 0.419706 0.419706 0.25 0.25 0.419706 0.419706 0.449553 0.383337 0.25 0.25 0.449553 0.383337 0.471731 0.341844 0.25 0.25 0.471731 0.341844 0.485388 0.296822 0.25 0.25 0.485388 0.296822 0.49 0.25 0.25 0.25 0.49 0.25 0.485388 0.203178 0.25 0.25 0.485388 0.203178 0.471731 0.158156 0.25 0.25 0.471731 0.158156 0.449553 0.116663 0.25 0.25 0.449553 0.116663 0.419706 0.08029395 0.25 0.25 0.419706 0.08029395 0.383337 0.05044698 0.25 0.25 0.383337 0.05044698 0.341844 0.02826899 0.25 0.25 0.341844 0.02826899 0.296822 0.01461195 0.25 0.25 0.296822 0.01461195 0.25 0.00999999 0.25 0.25 0.25 0.00999999 0.203178 0.01461195 0.25 0.25 0.203178 0.01461195 0.158156 0.02826899 0.25 0.25 0.158156 0.02826899 0.116663 0.05044698 0.25 0.25 0.116663 0.05044698 0.08029395 0.08029395 0.25 0.25 0.08029395 0.08029395 0.05044698 0.116663 0.25 0.25 0.05044698 0.116663 0.02826899 0.158156 0.25 0.25 0.02826899 0.158156 0.01461195 0.203178 0.25 0.25 0.01461195 0.203178 0.00999999 0.25 0.25 0.25 0.00999999 0.25 0.01461195 0.296822 0.25 0.25 0.01461195 0.296822 0.02826899 0.341844 0.25 0.25 0.02826899 0.341844 0.05044698 0.383337 0.25 0.25 0.05044698 0.383337 0.08029395 0.419706 0.25 0.25 0.08029395 0.419706 0.116663 0.449553 0.25 0.25 0.116663 0.449553 0.158156 0.471731 0.25 0.25 0.883337 0.449553 0.841844 0.471731 0.616663 0.449553 0.158156 0.471731 0.203178 0.485388 0.25 0.25 0.203178 0.485388 0.25 0.49 0.25 0.25 0.625 0.75 0.875 0.75 0.875 0.5 0.375 1 0.625 1 0.625 0.75 0.375 0 0.375 0.25 0.625 0.25 0.125 0.75 0.375 0.75 0.375 0.5 0.375 0.75 0.625 0.75 0.625 0.5 0.375 0.5 0.625 0.5 0.625 0.25 0.796822 0.485388 0.75 0.49 0.703178 0.485388 0.703178 0.485388 0.658156 0.471731 0.796822 0.485388 0.658156 0.471731 0.616663 0.449553 0.841844 0.471731 0.796822 0.485388 0.658156 0.471731 0.841844 0.471731 0.616663 0.449553 0.580294 0.419706 0.919706 0.419706 0.580294 0.419706 0.550447 0.383337 0.949553 0.383337 0.550447 0.383337 0.528269 0.341844 0.949553 0.383337 0.528269 0.341844 0.514612 0.296822 0.971731 0.341844 0.949553 0.383337 0.528269 0.341844 0.971731 0.341844 0.514612 0.296822 0.51 0.25 0.99 0.25 0.51 0.25 0.514612 0.203178 0.985388 0.203178 0.514612 0.203178 0.528269 0.158156 0.985388 0.203178 0.528269 0.158156 0.550447 0.116663 0.971731 0.158156 0.985388 0.203178 0.528269 0.158156 0.971731 0.158156 0.550447 0.116663 0.580294 0.08029395 0.919706 0.08029395 0.580294 0.08029395 0.616663 0.05044698 0.883337 0.05044698 0.616663 0.05044698 0.658156 0.02826899 0.883337 0.05044698 0.658156 0.02826899 0.703178 0.01461195 0.841844 0.02826899 0.883337 0.05044698 0.658156 0.02826899 0.841844 0.02826899 0.703178 0.01461195 0.75 0.00999999 0.796822 0.01461195 0.796822 0.01461195 0.841844 0.02826899 0.703178 0.01461195 0.883337 0.05044698 0.919706 0.08029395 0.580294 0.08029395 0.919706 0.08029395 0.949553 0.116663 0.550447 0.116663 0.949553 0.116663 0.971731 0.158156 0.550447 0.116663 0.985388 0.203178 0.99 0.25 0.51 0.25 0.99 0.25 0.985388 0.296822 0.514612 0.296822 0.985388 0.296822 0.971731 0.341844 0.514612 0.296822 0.949553 0.383337 0.919706 0.419706 0.580294 0.419706 0.919706 0.419706 0.883337 0.449553 0.616663 0.449553</float_array>
          <technique_common>
            <accessor source="#Camera-mesh-map-0-array" count="222" stride="2">
              <param name="S" type="float"/>
              <param name="T" type="float"/>
            </accessor>
          </technique_common>
        </source>
        <vertices id="Camera-mesh-vertices">
          <input semantic="POSITION" source="#Camera-mesh-positions"/>
        </vertices>
        <triangles count="74">
          <input semantic="VERTEX" source="#Camera-mesh-vertices" offset="0"/>
          <input semantic="NORMAL" source="#Camera-mesh-normals" offset="1"/>
          <input semantic="TEXCOORD" source="#Camera-mesh-map-0" offset="2" set="2"/>
          <p>2 0 0 4 0 1 0 0 2 7 1 3 2 1 4 3 1 5 7 2 6 4 3 7 6 4 8 7 5 9 1 5 10 5 5 11 3 6 12 0 7 13 1 8 14 1 9 15 4 9 16 5 9 17 8 10 18 9 10 19 40 10 20 9 11 21 10 11 22 40 11 23 10 12 24 11 12 25 40 12 26 11 13 27 12 13 28 40 13 29 12 14 30 13 14 31 40 14 32 13 15 33 14 15 34 40 15 35 14 16 36 15 16 37 40 16 38 15 17 39 16 17 40 40 17 41 16 18 42 17 18 43 40 18 44 17 19 45 18 19 46 40 19 47 18 20 48 19 20 49 40 20 50 19 21 51 20 21 52 40 21 53 20 22 54 21 22 55 40 22 56 21 23 57 22 23 58 40 23 59 22 24 60 23 24 61 40 24 62 23 25 63 24 25 64 40 25 65 24 26 66 25 26 67 40 26 68 25 27 69 26 27 70 40 27 71 26 28 72 27 28 73 40 28 74 27 29 75 28 29 76 40 29 77 28 30 78 29 30 79 40 30 80 29 31 81 30 31 82 40 31 83 30 32 84 31 32 85 40 32 86 31 33 87 32 33 88 40 33 89 32 34 90 33 34 91 40 34 92 33 35 93 34 35 94 40 35 95 34 36 96 35 36 97 40 36 98 35 37 99 36 37 100 40 37 101 36 38 102 37 38 103 40 38 104 37 39 105 38 39 106 40 39 107 11 40 108 10 5 109 37 41 110 38 42 111 39 42 112 40 42 113 39 43 114 8 43 115 40 43 116 2 0 117 6 0 118 4 0 119 7 1 120 6 1 121 2 1 122 7 2 123 5 44 124 4 3 125 7 5 126 3 5 127 1 5 128 3 6 129 2 45 130 0 7 131 1 9 132 0 9 133 4 9 134 9 5 135 8 5 136 39 5 137 39 5 138 38 5 139 9 5 140 38 5 141 37 41 142 10 5 143 9 5 144 38 5 145 10 5 146 37 41 147 36 5 148 12 46 149 36 5 150 35 5 151 13 5 152 35 5 153 34 5 154 13 5 155 34 5 156 33 5 157 14 5 158 13 5 159 34 5 160 14 5 161 33 5 162 32 5 163 16 5 164 32 5 165 31 5 166 17 5 167 31 5 168 30 5 169 17 5 170 30 5 171 29 5 172 18 5 173 17 5 174 30 5 175 18 5 176 29 5 177 28 47 178 20 5 179 28 47 180 27 48 181 21 49 182 27 48 183 26 5 184 21 49 185 26 5 186 25 5 187 22 5 188 21 49 189 26 5 190 22 5 191 25 5 192 24 5 193 23 5 194 23 5 195 22 5 196 25 5 197 21 49 198 20 5 199 28 47 200 20 5 201 19 5 202 29 5 203 19 5 204 18 5 205 29 5 206 17 5 207 16 5 208 32 5 209 16 5 210 15 5 211 33 5 212 15 5 213 14 5 214 33 5 215 13 5 216 12 46 217 36 5 218 12 46 219 11 40 220 37 41 221</p>
        </triangles>
      </mesh>
    </geometry>
  </library_geometries>
  <library_visual_scenes>
    <visual_scene id="Scene" name="Scene">
      <node id="Cylinder_001" name="Cylinder.001" type="NODE">
        <matrix sid="transform">1 0 0 0 0 7.54979e-8 -1 0 0 1 7.54979e-8 0 0 0 0 1</matrix>
        <instance_geometry url="#Cylinder_001-mesh" name="Cylinder.001"/>
      </node>
      <node id="Cylinder" name="Cylinder" type="NODE">
        <matrix sid="transform">1 0 0 0 0 7.54979e-8 -1 0 0 1 7.54979e-8 0 0 0 0 1</matrix>
        <instance_geometry url="#Cylinder-mesh" name="Cylinder"/>
      </node>
      <node id="Cone" name="Cone" type="NODE">
        <matrix sid="transform">1 0 0 0 0 7.54979e-8 -1 0 0 1 7.54979e-8 0 0 0 0 1</matrix>
        <instance_geometry url="#Cone-mesh" name="Cone"/>
      </node>
      <node id="Camera_001" name="Camera.001" type="NODE">
        <matrix sid="transform">1 0 0 0 0 7.54979e-8 -1 0 0 1 7.54979e-8 0 0 0 0 1</matrix>
        <instance_geometry url="#Camera-mesh" name="Camera.001"/>
      </node>
    </visual_scene>
  </library_visual_scenes>
  <scene>
    <instance_visual_scene url="#Scene"/>
  </scene>
</COLLADA>